<svg width="32" height="32" viewBox="0 0 32 32" fill="none" xmlns="http://www.w3.org/2000/svg">
<path d="M16 5C9.37 5 4 10.2436 4 16.7176C4 21.9027 7.435 26.2822 12.205 27.8348C12.805 27.9373 13.03 27.5858 13.03 27.2782C13.03 26.9999 13.015 26.0771 13.015 25.0958C10 25.6377 9.22 24.3781 8.98 23.7189C8.845 23.3821 8.26 22.3421 7.75 22.0638C7.33 21.8441 6.73 21.3022 7.735 21.2875C8.68 21.2729 9.355 22.1371 9.58 22.4886C10.66 24.2609 12.385 23.7629 13.075 23.4553C13.18 22.6936 13.495 22.181 13.84 21.8881C11.17 21.5951 8.38 20.5845 8.38 16.1025C8.38 14.8282 8.845 13.7736 9.61 12.9534C9.49 12.6604 9.07 11.4594 9.73 9.84818C9.73 9.84818 10.735 9.54059 13.03 11.0492C13.99 10.7856 15.01 10.6538 16.03 10.6538C17.05 10.6538 18.07 10.7856 19.03 11.0492C21.325 9.52594 22.33 9.84818 22.33 9.84818C22.99 11.4594 22.57 12.6604 22.45 12.9534C23.215 13.7736 23.68 14.8135 23.68 16.1025C23.68 20.5991 20.875 21.5951 18.205 21.8881C18.64 22.2542 19.015 22.9573 19.015 24.0558C19.015 25.6231 19 26.8827 19 27.2782C19 27.5858 19.225 27.9519 19.825 27.8348C22.2073 27.0497 24.2775 25.5547 25.744 23.5604C27.2106 21.5661 27.9996 19.1728 28 16.7176C28 10.2436 22.63 5 16 5Z" fill="#ABB2BF"/>
</svg>
